 0
SECTION
 2
HEADER
 9
$ACADVER
 1
AC1009
 0
ENDSEC
 0
SECTION
 2
TABLES
 0
TABLE
 2
LTYPE
 70
1
 0
LTYPE
 2
CONTINUOUS
 70
64
 3
solid line
 72
65
 73
0
 40
0.0
 0
ENDTAB
 0
TABLE
 2
LAYER
 70
6
 0
LAYER
 2
0
 70
0
 62
7
 6
CONTINUOUS
 0
LAYER
 2
SUBDIVISION_SURFACE
 70
64
 62
7
 6
CONTINUOUS
 0
ENDTAB
 0
ENDSEC
 0
SECTION
 2
BLOCKS
 0
ENDSEC
 0
SECTION
 2
ENTITIES
 0
POLYLINE
 8
SUBDIVISION_SURFACE
 66
1
 10
0.0
 20
0.0
 30
0.0
 70
64
 71
40
 72
76
 0
VERTEX
 8
SUBDIVISION_SURFACE
 10
-0.8723
 20
2.4973
 30
0.4115
 70
192
 0
VERTEX
 8
SUBDIVISION_SURFACE
 10
0.4318
 20
-3.1516
 30
-0.2664
 70
192
 0
VERTEX
 8
SUBDIVISION_SURFACE
 10
-0.1999
 20
-2.3671
 30
0.5107
 70
192
 0
VERTEX
 8
SUBDIVISION_SURFACE
 10
-0.8736
 20
1.3828
 30
-0.3715
 70
192
 0
VERTEX
 8
SUBDIVISION_SURFACE
 10
-0.4232
 20
-1.4126
 30
0.47
 70
192
 0
VERTEX
 8
SUBDIVISION_SURFACE
 10
-0.8208
 20
2.4679
 30
-0.3532
 70
192
 0
VERTEX
 8
SUBDIVISION_SURFACE
 10
0.8222
 20
-1.9043
 30
-0.2962
 70
192
 0
VERTEX
 8
SUBDIVISION_SURFACE
 10
-0.7056
 20
-3.0675
 30
0.1961
 70
192
 0
VERTEX
 8
SUBDIVISION_SURFACE
 10
-0.6632
 20
-2.5886
 30
0.3049
 70
192
 0
VERTEX
 8
SUBDIVISION_SURFACE
 10
0.5601
 20
1.3415
 30
-0.4683
 70
192
 0
VERTEX
 8
SUBDIVISION_SURFACE
 10
0.8846
 20
1.3471
 30
-0.3767
 70
192
 0
VERTEX
 8
SUBDIVISION_SURFACE
 10
-0.6905
 20
1.8195
 30
0.3528
 70
192
 0
VERTEX
 8
SUBDIVISION_SURFACE
 10
0.8889
 20
2.4755
 30
-0.3026
 70
192
 0
VERTEX
 8
SUBDIVISION_SURFACE
 10
0.692
 20
1.2849
 30
0.4826
 70
192
 0
VERTEX
 8
SUBDIVISION_SURFACE
 10
0.5026
 20
2.3665
 30
0.4448
 70
192
 0
VERTEX
 8
SUBDIVISION_SURFACE
 10
1.0183
 20
1.4025
 30
0.3282
 70
192
 0
VERTEX
 8
SUBDIVISION_SURFACE
 10
-0.9543
 20
-1.4289
 30
0.1883
 70
192
 0
VERTEX
 8
SUBDIVISION_SURFACE
 10
-0.2355
 20
2.2163
 30
0.4503
 70
192
 0
VERTEX
 8
SUBDIVISION_SURFACE
 10
-0.6703
 20
2.619
 30
-0.3852
 70
192
 0
VERTEX
 8
SUBDIVISION_SURFACE
 10
-0.6023
 20
-3.0683
 30
-0.1346
 70
192
 0
VERTEX
 8
SUBDIVISION_SURFACE
 10
-0.7704
 20
2.8859
 30
0.1974
 70
192
 0
VERTEX
 8
SUBDIVISION_SURFACE
 10
0.2963
 20
-3.0893
 30
0.1597
 70
192
 0
VERTEX
 8
SUBDIVISION_SURFACE
 10
-0.9208
 20
-2.6731
 30
-0.041
 70
192
 0
VERTEX
 8
SUBDIVISION_SURFACE
 10
0.7558
 20
-2.671
 30
0.3081
 70
192
 0
VERTEX
 8
SUBDIVISION_SURFACE
 10
0.6765
 20
2.9986
 30
-0.121
 70
192
 0
VERTEX
 8
SUBDIVISION_SURFACE
 10
-0.5645
 20
0.9017
 30
-0.4754
 70
192
 0
VERTEX
 8
SUBDIVISION_SURFACE
 10
-0.5273
 20
2.914
 30
-0.3386
 70
192
 0
VERTEX
 8
SUBDIVISION_SURFACE
 10
0.9686
 20
2.5098
 30
0.0772
 70
192
 0
VERTEX
 8
SUBDIVISION_SURFACE
 10
0.368
 20
-2.2726
 30
0.5418
 70
192
 0
VERTEX
 8
SUBDIVISION_SURFACE
 10
0.9025
 20
-1.3668
 30
0.2012
 70
192
 0
VERTEX
 8
SUBDIVISION_SURFACE
 10
0.612
 20
-2.3283
 30
-0.4346
 70
192
 0
VERTEX
 8
SUBDIVISION_SURFACE
 10
-0.8969
 20
1.1416
 30
0.412
 70
192
 0
VERTEX
 8
SUBDIVISION_SURFACE
 10
0.5734
 20
3.0308
 30
0.1621
 70
192
 0
VERTEX
 8
SUBDIVISION_SURFACE
 10
-0.4253
 20
3.1048
 30
0.2164
 70
192
 0
VERTEX
 8
SUBDIVISION_SURFACE
 10
-0.9437
 20
-1.2852
 30
-0.4002
 70
192
 0
VERTEX
 8
SUBDIVISION_SURFACE
 10
0.6531
 20
-2.927
 30
0.2755
 70
192
 0
VERTEX
 8
SUBDIVISION_SURFACE
 10
-0.6939
 20
-2.3819
 30
-0.3534
 70
192
 0
VERTEX
 8
SUBDIVISION_SURFACE
 10
0.9362
 20
-1.2396
 30
-0.2225
 70
192
 0
VERTEX
 8
SUBDIVISION_SURFACE
 10
0.9653
 20
-2.2841
 30
-0.1501
 70
192
 0
VERTEX
 8
SUBDIVISION_SURFACE
 10
0.6184
 20
2.5325
 30
-0.3186
 70
192
 0
VERTEX
 8
SUBDIVISION_SURFACE
 10
0
 20
0
 30
0
 70
128
 71
6
 72
32
 73
4
 74
4
 0
VERTEX
 8
SUBDIVISION_SURFACE
 10
0
 20
0
 30
0
 70
128
 71
5
 72
12
 73
18
 74
18
 0
VERTEX
 8
SUBDIVISION_SURFACE
 10
0
 20
0
 30
0
 70
128
 71
12
 72
1
 73
21
 74
21
 0
VERTEX
 8
SUBDIVISION_SURFACE
 10
0
 20
0
 30
0
 70
128
 71
27
 72
34
 73
21
 74
21
 0
VERTEX
 8
SUBDIVISION_SURFACE
 10
0
 20
0
 30
0
 70
128
 71
22
 72
2
 73
20
 74
20
 0
VERTEX
 8
SUBDIVISION_SURFACE
 10
0
 20
0
 30
0
 70
128
 71
34
 72
27
 73
25
 74
25
 0
VERTEX
 8
SUBDIVISION_SURFACE
 10
0
 20
0
 30
0
 70
128
 71
1
 72
6
 73
27
 74
27
 0
VERTEX
 8
SUBDIVISION_SURFACE
 10
0
 20
0
 30
0
 70
128
 71
9
 72
35
 73
17
 74
17
 0
VERTEX
 8
SUBDIVISION_SURFACE
 10
0
 20
0
 30
0
 70
128
 71
26
 72
31
 73
10
 74
10
 0
VERTEX
 8
SUBDIVISION_SURFACE
 10
0
 20
0
 30
0
 70
128
 71
2
 72
22
 73
36
 74
36
 0
VERTEX
 8
SUBDIVISION_SURFACE
 10
0
 20
0
 30
0
 70
128
 71
28
 72
13
 73
11
 74
11
 0
VERTEX
 8
SUBDIVISION_SURFACE
 10
0
 20
0
 30
0
 70
128
 71
6
 72
1
 73
32
 74
32
 0
VERTEX
 8
SUBDIVISION_SURFACE
 10
0
 20
0
 30
0
 70
128
 71
37
 72
23
 73
20
 74
20
 0
VERTEX
 8
SUBDIVISION_SURFACE
 10
0
 20
0
 30
0
 70
128
 71
37
 72
20
 73
2
 74
2
 0
VERTEX
 8
SUBDIVISION_SURFACE
 10
0
 20
0
 30
0
 70
128
 71
3
 72
9
 73
17
 74
17
 0
VERTEX
 8
SUBDIVISION_SURFACE
 10
0
 20
0
 30
0
 70
128
 71
35
 72
4
 73
32
 74
32
 0
VERTEX
 8
SUBDIVISION_SURFACE
 10
0
 20
0
 30
0
 70
128
 71
14
 72
29
 73
5
 74
5
 0
VERTEX
 8
SUBDIVISION_SURFACE
 10
0
 20
0
 30
0
 70
128
 71
15
 72
16
 73
14
 74
14
 0
VERTEX
 8
SUBDIVISION_SURFACE
 10
0
 20
0
 30
0
 70
128
 71
39
 72
30
 73
38
 74
38
 0
VERTEX
 8
SUBDIVISION_SURFACE
 10
0
 20
0
 30
0
 70
128
 71
19
 72
26
 73
10
 74
10
 0
VERTEX
 8
SUBDIVISION_SURFACE
 10
0
 20
0
 30
0
 70
128
 71
24
 72
39
 73
2
 74
2
 0
VERTEX
 8
SUBDIVISION_SURFACE
 10
0
 20
0
 30
0
 70
128
 71
28
 72
11
 73
16
 74
16
 0
VERTEX
 8
SUBDIVISION_SURFACE
 10
0
 20
0
 30
0
 70
128
 71
10
 72
31
 73
7
 74
7
 0
VERTEX
 8
SUBDIVISION_SURFACE
 10
0
 20
0
 30
0
 70
128
 71
19
 72
27
 73
6
 74
6
 0
VERTEX
 8
SUBDIVISION_SURFACE
 10
0
 20
0
 30
0
 70
128
 71
14
 72
30
 73
29
 74
29
 0
VERTEX
 8
SUBDIVISION_SURFACE
 10
0
 20
0
 30
0
 70
128
 71
7
 72
31
 73
2
 74
2
 0
VERTEX
 8
SUBDIVISION_SURFACE
 10
0
 20
0
 30
0
 70
128
 71
40
 72
11
 73
13
 74
13
 0
VERTEX
 8
SUBDIVISION_SURFACE
 10
0
 20
0
 30
0
 70
128
 71
18
 72
21
 73
33
 74
33
 0
VERTEX
 8
SUBDIVISION_SURFACE
 10
0
 20
0
 30
0
 70
128
 71
15
 72
33
 73
28
 74
28
 0
VERTEX
 8
SUBDIVISION_SURFACE
 10
0
 20
0
 30
0
 70
128
 71
19
 72
4
 73
26
 74
26
 0
VERTEX
 8
SUBDIVISION_SURFACE
 10
0
 20
0
 30
0
 70
128
 71
37
 72
2
 73
31
 74
31
 0
VERTEX
 8
SUBDIVISION_SURFACE
 10
0
 20
0
 30
0
 70
128
 71
9
 72
20
 73
23
 74
23
 0
VERTEX
 8
SUBDIVISION_SURFACE
 10
0
 20
0
 30
0
 70
128
 71
28
 72
25
 73
13
 74
13
 0
VERTEX
 8
SUBDIVISION_SURFACE
 10
0
 20
0
 30
0
 70
128
 71
10
 72
38
 73
11
 74
11
 0
VERTEX
 8
SUBDIVISION_SURFACE
 10
0
 20
0
 30
0
 70
128
 71
18
 72
15
 73
14
 74
14
 0
VERTEX
 8
SUBDIVISION_SURFACE
 10
0
 20
0
 30
0
 70
128
 71
40
 72
27
 73
19
 74
19
 0
VERTEX
 8
SUBDIVISION_SURFACE
 10
0
 20
0
 30
0
 70
128
 71
29
 72
36
 73
8
 74
8
 0
VERTEX
 8
SUBDIVISION_SURFACE
 10
0
 20
0
 30
0
 70
128
 71
36
 72
22
 73
8
 74
8
 0
VERTEX
 8
SUBDIVISION_SURFACE
 10
0
 20
0
 30
0
 70
128
 71
26
 72
35
 73
37
 74
37
 0
VERTEX
 8
SUBDIVISION_SURFACE
 10
0
 20
0
 30
0
 70
128
 71
29
 72
8
 73
3
 74
3
 0
VERTEX
 8
SUBDIVISION_SURFACE
 10
0
 20
0
 30
0
 70
128
 71
22
 72
20
 73
8
 74
8
 0
VERTEX
 8
SUBDIVISION_SURFACE
 10
0
 20
0
 30
0
 70
128
 71
37
 72
35
 73
23
 74
23
 0
VERTEX
 8
SUBDIVISION_SURFACE
 10
0
 20
0
 30
0
 70
128
 71
19
 72
6
 73
4
 74
4
 0
VERTEX
 8
SUBDIVISION_SURFACE
 10
0
 20
0
 30
0
 70
128
 71
21
 72
34
 73
33
 74
33
 0
VERTEX
 8
SUBDIVISION_SURFACE
 10
0
 20
0
 30
0
 70
128
 71
26
 72
37
 73
31
 74
31
 0
VERTEX
 8
SUBDIVISION_SURFACE
 10
0
 20
0
 30
0
 70
128
 71
7
 72
39
 73
38
 74
38
 0
VERTEX
 8
SUBDIVISION_SURFACE
 10
0
 20
0
 30
0
 70
128
 71
12
 72
32
 73
1
 74
1
 0
VERTEX
 8
SUBDIVISION_SURFACE
 10
0
 20
0
 30
0
 70
128
 71
29
 72
30
 73
24
 74
24
 0
VERTEX
 8
SUBDIVISION_SURFACE
 10
0
 20
0
 30
0
 70
128
 71
40
 72
25
 73
27
 74
27
 0
VERTEX
 8
SUBDIVISION_SURFACE
 10
0
 20
0
 30
0
 70
128
 71
1
 72
27
 73
21
 74
21
 0
VERTEX
 8
SUBDIVISION_SURFACE
 10
0
 20
0
 30
0
 70
128
 71
3
 72
17
 73
5
 74
5
 0
VERTEX
 8
SUBDIVISION_SURFACE
 10
0
 20
0
 30
0
 70
128
 71
9
 72
23
 73
35
 74
35
 0
VERTEX
 8
SUBDIVISION_SURFACE
 10
0
 20
0
 30
0
 70
128
 71
29
 72
24
 73
36
 74
36
 0
VERTEX
 8
SUBDIVISION_SURFACE
 10
0
 20
0
 30
0
 70
128
 71
28
 72
33
 73
25
 74
25
 0
VERTEX
 8
SUBDIVISION_SURFACE
 10
0
 20
0
 30
0
 70
128
 71
12
 72
5
 73
17
 74
17
 0
VERTEX
 8
SUBDIVISION_SURFACE
 10
0
 20
0
 30
0
 70
128
 71
30
 72
11
 73
38
 74
38
 0
VERTEX
 8
SUBDIVISION_SURFACE
 10
0
 20
0
 30
0
 70
128
 71
24
 72
2
 73
36
 74
36
 0
VERTEX
 8
SUBDIVISION_SURFACE
 10
0
 20
0
 30
0
 70
128
 71
3
 72
8
 73
9
 74
9
 0
VERTEX
 8
SUBDIVISION_SURFACE
 10
0
 20
0
 30
0
 70
128
 71
40
 72
10
 73
11
 74
11
 0
VERTEX
 8
SUBDIVISION_SURFACE
 10
0
 20
0
 30
0
 70
128
 71
35
 72
32
 73
17
 74
17
 0
VERTEX
 8
SUBDIVISION_SURFACE
 10
0
 20
0
 30
0
 70
128
 71
15
 72
28
 73
16
 74
16
 0
VERTEX
 8
SUBDIVISION_SURFACE
 10
0
 20
0
 30
0
 70
128
 71
12
 72
21
 73
18
 74
18
 0
VERTEX
 8
SUBDIVISION_SURFACE
 10
0
 20
0
 30
0
 70
128
 71
34
 72
25
 73
33
 74
33
 0
VERTEX
 8
SUBDIVISION_SURFACE
 10
0
 20
0
 30
0
 70
128
 71
12
 72
17
 73
32
 74
32
 0
VERTEX
 8
SUBDIVISION_SURFACE
 10
0
 20
0
 30
0
 70
128
 71
40
 72
13
 73
25
 74
25
 0
VERTEX
 8
SUBDIVISION_SURFACE
 10
0
 20
0
 30
0
 70
128
 71
3
 72
5
 73
29
 74
29
 0
VERTEX
 8
SUBDIVISION_SURFACE
 10
0
 20
0
 30
0
 70
128
 71
14
 72
5
 73
18
 74
18
 0
VERTEX
 8
SUBDIVISION_SURFACE
 10
0
 20
0
 30
0
 70
128
 71
39
 72
24
 73
30
 74
30
 0
VERTEX
 8
SUBDIVISION_SURFACE
 10
0
 20
0
 30
0
 70
128
 71
30
 72
16
 73
11
 74
11
 0
VERTEX
 8
SUBDIVISION_SURFACE
 10
0
 20
0
 30
0
 70
128
 71
26
 72
4
 73
35
 74
35
 0
VERTEX
 8
SUBDIVISION_SURFACE
 10
0
 20
0
 30
0
 70
128
 71
18
 72
33
 73
15
 74
15
 0
VERTEX
 8
SUBDIVISION_SURFACE
 10
0
 20
0
 30
0
 70
128
 71
14
 72
16
 73
30
 74
30
 0
VERTEX
 8
SUBDIVISION_SURFACE
 10
0
 20
0
 30
0
 70
128
 71
10
 72
7
 73
38
 74
38
 0
VERTEX
 8
SUBDIVISION_SURFACE
 10
0
 20
0
 30
0
 70
128
 71
7
 72
2
 73
39
 74
39
 0
VERTEX
 8
SUBDIVISION_SURFACE
 10
0
 20
0
 30
0
 70
128
 71
9
 72
8
 73
20
 74
20
 0
VERTEX
 8
SUBDIVISION_SURFACE
 10
0
 20
0
 30
0
 70
128
 71
19
 72
10
 73
40
 74
40
 0
SEQEND
 0
ENDSEC
 0
EOF
